g BackPanel_(8)
v -0.063 -0.068 0.15 0.494118 0.494118 0.52549
v -0.063 -0.065 0.15 0.494118 0.494118 0.52549
v 0.063 -0.065 0.15 0.494118 0.494118 0.52549
v 0.063 -0.068 0.15 0.494118 0.494118 0.52549
v -0.063 -0.065 0.87 0.494118 0.494118 0.52549
v -0.063 -0.068 0.87 0.494118 0.494118 0.52549
v 0.063 -0.068 0.87 0.494118 0.494118 0.52549
v 0.063 -0.065 0.87 0.494118 0.494118 0.52549
vn -0 -0 -1
vn -1 0 0
vn 0 0 1
vn 2.4606e-16 1 0
vn 9.8424e-17 -1 0
vn 1 0 0
vt -0.148543 -0.0507446
vt -0.148543 -0.0477446
vt -0.0225426 -0.0477446
vt -0.0225426 -0.0507446
vt -0.00714001 0.22139
vt -0.72714 0.22139
vt -0.72714 0.21839
vt -0.00714001 0.21839
vt -0.138 -0.065
vt -0.138 -0.068
vt -0.012 -0.068
vt -0.012 -0.065
vt -0.129 0
vt -0.129 -0.72
vt -0.003 -0.72
vt -0.003 0
vt 0.003 0
vt 0.003 -0.72
vt 0.129 -0.72
vt 0.129 0
vt -0.000303919 -0.219648
vt -0.000303919 -0.216648
vt -0.720304 -0.216648
vt -0.720304 -0.219648
f 1/1/1 2/2/1 3/3/1
f 3/3/1 4/4/1 1/1/1
f 5/5/2 2/6/2 1/7/2
f 1/7/2 6/8/2 5/5/2
f 5/9/3 6/10/3 7/11/3
f 7/11/3 8/12/3 5/9/3
f 8/13/4 3/14/4 2/15/4
f 2/15/4 5/16/4 8/13/4
f 6/17/5 1/18/5 4/19/5
f 4/19/5 7/20/5 6/17/5
f 8/21/6 7/22/6 4/23/6
f 4/23/6 3/24/6 8/21/6
g LH_Panel_(8)
v -0.075 -0.588 0.15 1 1 1
v -0.075 -0.482 0.15 1 1 1
v -0.057 -0.482 0.15 1 1 1
v -0.057 -0.588 0.15 1 1 1
v -0.075 -0.482 0 1 1 1
v -0.057 -0.482 0 1 1 1
v -0.057 -0.588 0.87 1 1 1
v -0.075 -0.588 0.87 1 1 1
v -0.057 -0.068 0 1 1 1
v -0.057 -0.068 0.87 1 1 1
v -0.075 5.55112e-17 0.87 1 1 1
v -0.075 5.55112e-17 0 1 1 1
v -0.057 5.55112e-17 0.87 1 1 1
v -0.057 5.55112e-17 0 1 1 1
v -0.057 -0.065 0.87 1 1 1
v -0.057 -0.065 0 1 1 1
v -0.063 -0.068 0.87 1 1 1
v -0.063 -0.065 0.87 1 1 1
v -0.063 -0.068 0 1 1 1
v -0.063 -0.065 0 1 1 1
vn -0 -0 -1
vn -0 -1 -0
vn 1 -0 -0
vn -1 -0 -0
vn -0 1 -0
vn 1 -0 -0
vn 0 0 1
vn -0 -0 -1
vn 2.31296e-15 -1 0
vn 1 0 0
vn 1.38778e-14 1 0
vt -0.3 -0.588
vt -0.3 -0.482
vt -0.282 -0.482
vt -0.282 -0.588
vt 0 -0.009
vt -0.15 -0.009
vt -0.15 0.009
vt 0 0.009
vt 0 0.009
vt 0 -0.009
vt -0.72 -0.009
vt -0.72 0.009
vt -0.87 0.217
vt 0 0.217
vt -0.72 -0.197
vt 0 -0.303
vt -0.72 -0.303
vt -0.87 -0.197
vt 0 -0.303
vt 0 0.285
vt 0.72 -0.197
vt 0.87 0.285
vt 0.87 -0.197
vt 0.72 -0.303
vt 0 -0.282
vt 0.87 -0.282
vt 0.87 -0.3
vt 0 -0.3
vt 0 0.22
vt -0.87 0.22
vt -0.87 0.285
vt 0 0.285
vt -0.3 0
vt -0.3 -0.588
vt -0.288 -0.068
vt -0.282 -0.588
vt -0.282 -0.068
vt -0.282 0
vt -0.288 -0.065
vt -0.282 -0.065
vt -0.282 -0.482
vt -0.3 -0.482
vt -0.288 -0.068
vt -0.3 0
vt -0.288 -0.065
vt -0.282 0
vt -0.282 -0.065
vt -0.282 -0.068
vt -0.003 0
vt -0.003 -0.87
vt 0.003 -0.87
vt 0.003 0
vt 0 -0.0015
vt 0.87 -0.0015
vt 0.87 0.0015
vt 0 0.0015
vt -0.003 0
vt -0.003 -0.87
vt 0.003 -0.87
vt 0.003 0
f 9/25/7 10/26/7 11/27/7
f 11/27/7 12/28/7 9/25/7
f 10/29/8 13/30/8 14/31/8
f 14/31/8 11/32/8 10/29/8
f 15/33/8 16/34/8 9/35/8
f 9/35/8 12/36/8 15/33/8
f 17/37/9 18/38/9 11/39/9
f 15/40/9 12/41/9 11/39/9
f 11/39/9 18/38/9 15/40/9
f 11/39/9 14/42/9 17/37/9
f 16/43/10 19/44/10 10/45/10
f 20/46/10 13/47/10 10/45/10
f 10/45/10 19/44/10 20/46/10
f 10/45/10 9/48/10 16/43/10
f 21/49/11 22/50/11 20/51/11
f 20/51/11 19/52/11 21/49/11
f 23/53/12 24/54/12 22/55/12
f 22/55/12 21/56/12 23/53/12
f 19/57/13 16/58/13 25/59/13
f 15/60/13 18/61/13 25/59/13
f 21/62/13 19/57/13 26/63/13
f 25/59/13 16/58/13 15/60/13
f 25/59/13 26/63/13 19/57/13
f 26/63/13 23/64/13 21/62/13
f 14/65/14 13/66/14 27/67/14
f 20/68/14 28/69/14 27/67/14
f 27/67/14 13/66/14 20/68/14
f 22/70/14 24/71/14 28/69/14
f 28/69/14 20/68/14 22/70/14
f 27/67/14 17/72/14 14/65/14
f 26/73/15 28/74/15 24/75/15
f 24/75/15 23/76/15 26/73/15
f 25/77/16 27/78/16 28/79/16
f 28/79/16 26/80/16 25/77/16
f 18/81/17 17/82/17 27/83/17
f 27/83/17 25/84/17 18/81/17
g Worktop_(8)
v 0.075 -0.62 0.908 0.760784 0.572549 0.4
v 0.075 -0.62 0.87 0.760784 0.572549 0.4
v 0.075 1.249e-16 0.87 0.760784 0.572549 0.4
v 0.075 9.71445e-17 0.908 0.760784 0.572549 0.4
v -0.075 1.249e-16 0.87 0.760784 0.572549 0.4
v -0.075 9.71445e-17 0.908 0.760784 0.572549 0.4
v -0.075 -0.62 0.908 0.760784 0.572549 0.4
v -0.075 -0.62 0.87 0.760784 0.572549 0.4
vn 1 0 0
vn -0 1 -6.12323e-17
vn 0 -1 6.12323e-17
vn -0 -6.12323e-17 -1
vn -1 0 0
vn 0 6.12323e-17 1
vt 0.169149 0.177595
vt 0.169149 0.215595
vt -0.450851 0.215595
vt -0.450851 0.177595
vt 1.05205 -0.501112
vt 1.05205 -0.463112
vt 1.20205 -0.463112
vt 1.20205 -0.501112
vt 1.068 -0.462
vt 1.068 -0.5
vt 1.218 -0.5
vt 1.218 -0.462
vt -0.118 1.209
vt 0.502 1.209
vt 0.502 1.359
vt -0.118 1.359
vt 0.118 -0.177
vt -0.502 -0.177
vt -0.502 -0.215
vt 0.118 -0.215
vt -0.118 1.359
vt 0.502 1.359
vt 0.502 1.209
vt -0.118 1.209
f 29/85/18 30/86/18 31/87/18
f 31/87/18 32/88/18 29/85/18
f 33/89/19 34/90/19 32/91/19
f 32/91/19 31/92/19 33/89/19
f 35/93/20 36/94/20 30/95/20
f 30/95/20 29/96/20 35/93/20
f 36/97/21 33/98/21 31/99/21
f 31/99/21 30/100/21 36/97/21
f 35/101/22 34/102/22 33/103/22
f 33/103/22 36/104/22 35/101/22
f 29/105/23 32/106/23 34/107/23
f 34/107/23 35/108/23 29/105/23
g Plinth_(8)
v 0.075 -0.5 0.15 1 1 1
v 0.075 -0.5 0 1 1 1
v 0.075 -0.482 0 1 1 1
v 0.075 -0.482 0.15 1 1 1
v -0.075 -0.5 0 1 1 1
v -0.075 -0.482 0 1 1 1
v -0.075 -0.482 0.15 1 1 1
v -0.075 -0.5 0.15 1 1 1
vn 1 0 0
vn -0 -0 -1
vn 0 0 1
vn 0 -1 0
vn -1 0 0
vn -0 1 -0
vt 0 0.215
vt -0.15 0.215
vt -0.15 0.197
vt 0 0.197
vt -0.15 -0.5
vt -0.15 -0.482
vt 0 -0.482
vt 0 -0.5
vt -0.15 -0.482
vt -0.15 -0.5
vt 0 -0.5
vt 0 -0.482
vt 0 -0.009
vt 0.15 -0.009
vt 0.15 0.141
vt 0 0.141
vt 0 -0.197
vt -0.15 -0.197
vt -0.15 -0.215
vt 0 -0.215
vt 0 0.141
vt 0.15 0.141
vt 0.15 -0.009
vt 0 -0.009
f 37/109/24 38/110/24 39/111/24
f 39/111/24 40/112/24 37/109/24
f 41/113/25 42/114/25 39/115/25
f 39/115/25 38/116/25 41/113/25
f 43/117/26 44/118/26 37/119/26
f 37/119/26 40/120/26 43/117/26
f 44/121/27 41/122/27 38/123/27
f 38/123/27 37/124/27 44/121/27
f 43/125/28 42/126/28 41/127/28
f 41/127/28 44/128/28 43/125/28
f 40/129/29 39/130/29 42/131/29
f 42/131/29 43/132/29 40/129/29
g RH_Panel_(8)
v 0.057 -0.588 0.15 1 1 1
v 0.057 -0.482 0.15 1 1 1
v 0.075 -0.482 0.15 1 1 1
v 0.075 -0.588 0.15 1 1 1
v 0.057 -0.482 0 1 1 1
v 0.075 -0.482 0 1 1 1
v 0.075 -0.588 0.87 1 1 1
v 0.057 -0.588 0.87 1 1 1
v 0.057 -0.068 0.87 1 1 1
v 0.057 -0.068 0 1 1 1
v 0.075 5.55112e-17 0 1 1 1
v 0.075 5.55112e-17 0.87 1 1 1
v 0.057 5.55112e-17 0 1 1 1
v 0.057 5.55112e-17 0.87 1 1 1
v 0.057 -0.065 0 1 1 1
v 0.057 -0.065 0.87 1 1 1
v 0.063 -0.068 0.87 1 1 1
v 0.063 -0.065 0.87 1 1 1
v 0.063 -0.068 0 1 1 1
v 0.063 -0.065 0 1 1 1
vn -0 -0 -1
vn -0 -1 -0
vn -1 -0 -0
vn 1 -0 -0
vn -0 1 -0
vn -1 -0 -0
vn 0 0 1
vn -0 -0 -1
vn -2.31296e-15 -1 0
vn -1 0 0
vn -1.38778e-14 1 0
vt -0.282 0.588
vt -0.282 0.482
vt -0.3 0.482
vt -0.3 0.588
vt 0 -0.009
vt -0.15 -0.009
vt -0.15 0.009
vt 0 0.009
vt -0.72 -0.009
vt -0.72 0.009
vt 0 0.009
vt 0 -0.009
vt 0 0.303
vt 0 -0.217
vt -0.72 0.197
vt -0.87 -0.217
vt -0.87 0.197
vt -0.72 0.303
vt 0.87 -0.285
vt 0 -0.285
vt 0.72 0.197
vt 0 0.303
vt 0.72 0.303
vt 0.87 0.197
vt 0 0.3
vt 0.87 0.3
vt 0.87 0.282
vt 0 0.282
vt 0 -0.285
vt -0.87 -0.285
vt -0.87 -0.22
vt 0 -0.22
vt -0.282 0.588
vt -0.3 0.588
vt -0.288 0.068
vt -0.3 0
vt -0.288 0.065
vt -0.282 0
vt -0.282 0.065
vt -0.282 0.068
vt -0.3 0
vt -0.3 0.482
vt -0.288 0.068
vt -0.282 0.482
vt -0.282 0.068
vt -0.282 0
vt -0.288 0.065
vt -0.282 0.065
vt 0.003 0
vt 0.003 0.87
vt -0.003 0.87
vt -0.003 0
vt 0 -0.0015
vt 0.87 -0.0015
vt 0.87 0.0015
vt 0 0.0015
vt 0.003 0
vt 0.003 0.87
vt -0.003 0.87
vt -0.003 -0
f 45/133/30 46/134/30 47/135/30
f 47/135/30 48/136/30 45/133/30
f 46/137/31 49/138/31 50/139/31
f 50/139/31 47/140/31 46/137/31
f 45/141/31 48/142/31 51/143/31
f 51/143/31 52/144/31 45/141/31
f 52/145/32 53/146/32 46/147/32
f 54/148/32 49/149/32 46/147/32
f 46/147/32 53/146/32 54/148/32
f 46/147/32 45/150/32 52/145/32
f 55/151/33 56/152/33 47/153/33
f 51/154/33 48/155/33 47/153/33
f 47/153/33 56/152/33 51/154/33
f 47/153/33 50/156/33 55/151/33
f 56/157/34 55/158/34 57/159/34
f 57/159/34 58/160/34 56/157/34
f 58/161/35 57/162/35 59/163/35
f 59/163/35 60/164/35 58/161/35
f 52/165/36 51/166/36 61/167/36
f 56/168/36 62/169/36 61/167/36
f 61/167/36 51/166/36 56/168/36
f 58/170/36 60/171/36 62/169/36
f 62/169/36 56/168/36 58/170/36
f 61/167/36 53/172/36 52/165/36
f 55/173/37 50/174/37 63/175/37
f 49/176/37 54/177/37 63/175/37
f 57/178/37 55/173/37 64/179/37
f 63/175/37 50/174/37 49/176/37
f 63/175/37 64/179/37 55/173/37
f 64/179/37 59/180/37 57/178/37
f 60/181/38 59/182/38 64/183/38
f 64/183/38 62/184/38 60/181/38
f 62/185/39 64/186/39 63/187/39
f 63/187/39 61/188/39 62/185/39
f 61/189/40 63/190/40 54/191/40
f 54/191/40 53/192/40 61/189/40
g Bottom_Shelf_(8)
v 0.057 -0.588 0.15 0.494118 0.494118 0.52549
v 0.057 -0.068 0.15 0.494118 0.494118 0.52549
v 0.057 -0.068 0.168 0.494118 0.494118 0.52549
v 0.057 -0.588 0.168 0.494118 0.494118 0.52549
v -0.057 -0.068 0.15 0.494118 0.494118 0.52549
v -0.057 -0.068 0.168 0.494118 0.494118 0.52549
v -0.057 -0.588 0.168 0.494118 0.494118 0.52549
v -0.057 -0.588 0.15 0.494118 0.494118 0.52549
vn 1 0 0
vn -0 1 -6.12323e-17
vn 0 -1 6.12323e-17
vn 0 -6.12323e-17 -1
vn -1 0 0
vn -0 6.12323e-17 1
vt 0.018 0.215
vt -0.502 0.215
vt -0.502 0.197
vt 0.018 0.197
vt -0.147952 -0.501112
vt -0.147952 -0.483112
vt -0.0339523 -0.483112
vt -0.0339523 -0.501112
vt -0.132 -0.482
vt -0.132 -0.5
vt -0.018 -0.5
vt -0.018 -0.482
vt -0.018 0.009
vt 0.502 0.009
vt 0.502 0.123
vt -0.018 0.123
vt -0.502 -0.197
vt -0.502 -0.215
vt 0.018 -0.215
vt 0.018 -0.197
vt -0.018 0.123
vt 0.502 0.123
vt 0.502 0.009
vt -0.018 0.009
f 65/193/41 66/194/41 67/195/41
f 67/195/41 68/196/41 65/193/41
f 69/197/42 70/198/42 67/199/42
f 67/199/42 66/200/42 69/197/42
f 71/201/43 72/202/43 65/203/43
f 65/203/43 68/204/43 71/201/43
f 72/205/44 69/206/44 66/207/44
f 66/207/44 65/208/44 72/205/44
f 70/209/45 69/210/45 72/211/45
f 72/211/45 71/212/45 70/209/45
f 68/213/46 67/214/46 70/215/46
f 70/215/46 71/216/46 68/213/46
g MiddleShelf_(8)
v 0.057 -0.588 0.509 0.494118 0.494118 0.52549
v 0.057 -0.068 0.509 0.494118 0.494118 0.52549
v 0.057 -0.068 0.527 0.494118 0.494118 0.52549
v 0.057 -0.588 0.527 0.494118 0.494118 0.52549
v -0.057 -0.068 0.509 0.494118 0.494118 0.52549
v -0.057 -0.068 0.527 0.494118 0.494118 0.52549
v -0.057 -0.588 0.527 0.494118 0.494118 0.52549
v -0.057 -0.588 0.509 0.494118 0.494118 0.52549
vn 1 0 0
vn -0 1 -6.12323e-17
vn 0 -1 6.12323e-17
vn 0 -6.12323e-17 -1
vn -1 0 0
vn -0 6.12323e-17 1
vt 0.018 0.215
vt -0.502 0.215
vt -0.502 0.197
vt 0.018 0.197
vt -0.147952 -0.501112
vt -0.147952 -0.483112
vt -0.0339523 -0.483112
vt -0.0339523 -0.501112
vt -0.132 -0.482
vt -0.132 -0.5
vt -0.018 -0.5
vt -0.018 -0.482
vt -0.018 0.009
vt 0.502 0.009
vt 0.502 0.123
vt -0.018 0.123
vt 0.018 -0.197
vt -0.502 -0.197
vt -0.502 -0.215
vt 0.018 -0.215
vt -0.018 0.123
vt 0.502 0.123
vt 0.502 0.009
vt -0.018 0.009
f 73/217/47 74/218/47 75/219/47
f 75/219/47 76/220/47 73/217/47
f 77/221/48 78/222/48 75/223/48
f 75/223/48 74/224/48 77/221/48
f 79/225/49 80/226/49 73/227/49
f 73/227/49 76/228/49 79/225/49
f 80/229/50 77/230/50 74/231/50
f 74/231/50 73/232/50 80/229/50
f 79/233/51 78/234/51 77/235/51
f 77/235/51 80/236/51 79/233/51
f 76/237/52 75/238/52 78/239/52
f 78/239/52 79/240/52 76/237/52
g MiddleShelf_(9)
v 0.057 -0.588 0.629 0.494118 0.494118 0.52549
v 0.057 -0.068 0.629 0.494118 0.494118 0.52549
v 0.057 -0.068 0.647 0.494118 0.494118 0.52549
v 0.057 -0.588 0.647 0.494118 0.494118 0.52549
v -0.057 -0.068 0.629 0.494118 0.494118 0.52549
v -0.057 -0.068 0.647 0.494118 0.494118 0.52549
v -0.057 -0.588 0.647 0.494118 0.494118 0.52549
v -0.057 -0.588 0.629 0.494118 0.494118 0.52549
vn 1 0 0
vn -0 1 -6.12323e-17
vn 0 -1 6.12323e-17
vn 0 -6.12323e-17 -1
vn -1 0 0
vn -0 6.12323e-17 1
vt 0.018 0.215
vt -0.502 0.215
vt -0.502 0.197
vt 0.018 0.197
vt -0.147952 -0.501112
vt -0.147952 -0.483112
vt -0.0339523 -0.483112
vt -0.0339523 -0.501112
vt -0.132 -0.482
vt -0.132 -0.5
vt -0.018 -0.5
vt -0.018 -0.482
vt -0.018 0.009
vt 0.502 0.009
vt 0.502 0.123
vt -0.018 0.123
vt 0.018 -0.197
vt -0.502 -0.197
vt -0.502 -0.215
vt 0.018 -0.215
vt -0.018 0.123
vt 0.502 0.123
vt 0.502 0.009
vt -0.018 0.009
f 81/241/53 82/242/53 83/243/53
f 83/243/53 84/244/53 81/241/53
f 85/245/54 86/246/54 83/247/54
f 83/247/54 82/248/54 85/245/54
f 87/249/55 88/250/55 81/251/55
f 81/251/55 84/252/55 87/249/55
f 88/253/56 85/254/56 82/255/56
f 82/255/56 81/256/56 88/253/56
f 87/257/57 86/258/57 85/259/57
f 85/259/57 88/260/57 87/257/57
f 84/261/58 83/262/58 86/263/58
f 86/263/58 87/264/58 84/261/58
g MiddleShelf_(10)
v 0.057 -0.588 0.739 0.494118 0.494118 0.52549
v 0.057 -0.068 0.739 0.494118 0.494118 0.52549
v 0.057 -0.068 0.757 0.494118 0.494118 0.52549
v 0.057 -0.588 0.757 0.494118 0.494118 0.52549
v -0.057 -0.068 0.739 0.494118 0.494118 0.52549
v -0.057 -0.068 0.757 0.494118 0.494118 0.52549
v -0.057 -0.588 0.757 0.494118 0.494118 0.52549
v -0.057 -0.588 0.739 0.494118 0.494118 0.52549
vn 1 0 0
vn -0 1 -6.12323e-17
vn 0 -1 6.12323e-17
vn 0 -6.12323e-17 -1
vn -1 0 0
vn -0 6.12323e-17 1
vt 0.018 0.215
vt -0.502 0.215
vt -0.502 0.197
vt 0.018 0.197
vt -0.147952 -0.501112
vt -0.147952 -0.483112
vt -0.0339523 -0.483112
vt -0.0339523 -0.501112
vt -0.132 -0.482
vt -0.132 -0.5
vt -0.018 -0.5
vt -0.018 -0.482
vt -0.018 0.009
vt 0.502 0.009
vt 0.502 0.123
vt -0.018 0.123
vt 0.018 -0.197
vt -0.502 -0.197
vt -0.502 -0.215
vt 0.018 -0.215
vt -0.018 0.123
vt 0.502 0.123
vt 0.502 0.009
vt -0.018 0.009
f 89/265/59 90/266/59 91/267/59
f 91/267/59 92/268/59 89/265/59
f 93/269/60 94/270/60 91/271/60
f 91/271/60 90/272/60 93/269/60
f 95/273/61 96/274/61 89/275/61
f 89/275/61 92/276/61 95/273/61
f 96/277/62 93/278/62 90/279/62
f 90/279/62 89/280/62 96/277/62
f 95/281/63 94/282/63 93/283/63
f 93/283/63 96/284/63 95/281/63
f 92/285/64 91/286/64 94/287/64
f 94/287/64 95/288/64 92/285/64
g MiddleShelf_(11)
v 0.057 -0.068 0.389 0.494118 0.494118 0.52549
v 0.057 -0.068 0.407 0.494118 0.494118 0.52549
v 0.057 -0.588 0.407 0.494118 0.494118 0.52549
v 0.057 -0.588 0.389 0.494118 0.494118 0.52549
v -0.057 -0.068 0.389 0.494118 0.494118 0.52549
v -0.057 -0.068 0.407 0.494118 0.494118 0.52549
v -0.057 -0.588 0.407 0.494118 0.494118 0.52549
v -0.057 -0.588 0.389 0.494118 0.494118 0.52549
vn 1 0 0
vn -0 1 -6.12323e-17
vn 0 -1 6.12323e-17
vn 0 -6.12323e-17 -1
vn -1 0 0
vn -0 6.12323e-17 1
vt -0.502 0.215
vt -0.502 0.197
vt 0.018 0.197
vt 0.018 0.215
vt -0.147952 -0.501112
vt -0.147952 -0.483112
vt -0.0339523 -0.483112
vt -0.0339523 -0.501112
vt -0.132 -0.482
vt -0.132 -0.5
vt -0.018 -0.5
vt -0.018 -0.482
vt -0.018 0.009
vt 0.502 0.009
vt 0.502 0.123
vt -0.018 0.123
vt 0.018 -0.197
vt -0.502 -0.197
vt -0.502 -0.215
vt 0.018 -0.215
vt -0.018 0.123
vt 0.502 0.123
vt 0.502 0.009
vt -0.018 0.009
f 97/289/65 98/290/65 99/291/65
f 99/291/65 100/292/65 97/289/65
f 101/293/66 102/294/66 98/295/66
f 98/295/66 97/296/66 101/293/66
f 103/297/67 104/298/67 100/299/67
f 100/299/67 99/300/67 103/297/67
f 104/301/68 101/302/68 97/303/68
f 97/303/68 100/304/68 104/301/68
f 103/305/69 102/306/69 101/307/69
f 101/307/69 104/308/69 103/305/69
f 99/309/70 98/310/70 102/311/70
f 102/311/70 103/312/70 99/309/70
g MiddleShelf_(12)
v 0.057 -0.588 0.279 0.494118 0.494118 0.52549
v 0.057 -0.068 0.279 0.494118 0.494118 0.52549
v 0.057 -0.068 0.297 0.494118 0.494118 0.52549
v 0.057 -0.588 0.297 0.494118 0.494118 0.52549
v -0.057 -0.068 0.279 0.494118 0.494118 0.52549
v -0.057 -0.068 0.297 0.494118 0.494118 0.52549
v -0.057 -0.588 0.297 0.494118 0.494118 0.52549
v -0.057 -0.588 0.279 0.494118 0.494118 0.52549
vn 1 0 0
vn -0 1 -6.12323e-17
vn 0 -1 6.12323e-17
vn 0 -6.12323e-17 -1
vn -1 0 0
vn -0 6.12323e-17 1
vt 0.018 0.215
vt -0.502 0.215
vt -0.502 0.197
vt 0.018 0.197
vt -0.147952 -0.501112
vt -0.147952 -0.483112
vt -0.0339523 -0.483112
vt -0.0339523 -0.501112
vt -0.132 -0.482
vt -0.132 -0.5
vt -0.018 -0.5
vt -0.018 -0.482
vt -0.018 0.009
vt 0.502 0.009
vt 0.502 0.123
vt -0.018 0.123
vt -0.502 -0.197
vt -0.502 -0.215
vt 0.018 -0.215
vt 0.018 -0.197
vt -0.018 0.123
vt 0.502 0.123
vt 0.502 0.009
vt -0.018 0.009
f 105/313/71 106/314/71 107/315/71
f 107/315/71 108/316/71 105/313/71
f 109/317/72 110/318/72 107/319/72
f 107/319/72 106/320/72 109/317/72
f 111/321/73 112/322/73 105/323/73
f 105/323/73 108/324/73 111/321/73
f 112/325/74 109/326/74 106/327/74
f 106/327/74 105/328/74 112/325/74
f 110/329/75 109/330/75 112/331/75
f 112/331/75 111/332/75 110/329/75
f 108/333/76 107/334/76 110/335/76
f 110/335/76 111/336/76 108/333/76
g TopBackSupportBar_(8)
v 0.057 -0.588 0.852 0.494118 0.494118 0.52549
v 0.057 -0.068 0.852 0.494118 0.494118 0.52549
v 0.057 -0.068 0.87 0.494118 0.494118 0.52549
v 0.057 -0.588 0.87 0.494118 0.494118 0.52549
v -0.057 -0.068 0.852 0.494118 0.494118 0.52549
v -0.057 -0.068 0.87 0.494118 0.494118 0.52549
v -0.057 -0.588 0.87 0.494118 0.494118 0.52549
v -0.057 -0.588 0.852 0.494118 0.494118 0.52549
vn 1 0 0
vn -0 1 -6.12323e-17
vn 0 -1 6.12323e-17
vn 0 -6.12323e-17 -1
vn -1 0 0
vn -0 6.12323e-17 1
vt 0.018 0.215
vt -0.502 0.215
vt -0.502 0.197
vt 0.018 0.197
vt -0.147952 -0.501112
vt -0.147952 -0.483112
vt -0.0339523 -0.483112
vt -0.0339523 -0.501112
vt -0.132 -0.482
vt -0.132 -0.5
vt -0.018 -0.5
vt -0.018 -0.482
vt -0.018 0.009
vt 0.502 0.009
vt 0.502 0.123
vt -0.018 0.123
vt 0.018 -0.197
vt -0.502 -0.197
vt -0.502 -0.215
vt 0.018 -0.215
vt -0.018 0.123
vt 0.502 0.123
vt 0.502 0.009
vt -0.018 0.009
f 113/337/77 114/338/77 115/339/77
f 115/339/77 116/340/77 113/337/77
f 117/341/78 118/342/78 115/343/78
f 115/343/78 114/344/78 117/341/78
f 119/345/79 120/346/79 113/347/79
f 113/347/79 116/348/79 119/345/79
f 120/349/80 117/350/80 114/351/80
f 114/351/80 113/352/80 120/349/80
f 119/353/81 118/354/81 117/355/81
f 117/355/81 120/356/81 119/353/81
f 116/357/82 115/358/82 118/359/82
f 118/359/82 119/360/82 116/357/82
