g LH_Panel_(10)
v -0.071 -0.338 2.158 1 1 1
v -0.071 -0.338 1.438 1 1 1
v -0.071 -0.068 1.438 1 1 1
v -0.071 -0.068 2.158 1 1 1
v -0.089 -0.338 2.158 1 1 1
v -0.089 -0.338 1.438 1 1 1
v -0.089 8.72964e-18 2.158 1 1 1
v -0.089 -7.94449e-17 1.438 1 1 1
v -0.071 8.72964e-18 2.158 1 1 1
v -0.071 -7.94449e-17 1.438 1 1 1
v -0.071 -0.065 2.158 1 1 1
v -0.071 -0.065 1.438 1 1 1
v -0.077 -0.068 1.438 1 1 1
v -0.077 -0.065 1.438 1 1 1
v -0.077 -0.068 2.158 1 1 1
v -0.077 -0.065 2.158 1 1 1
vn 1 -0 -0
vn 0 -1 1.22465e-16
vn -1 -0 -0
vn -0 1 -1.22465e-16
vn 1 -0 -0
vn 0 -1.22465e-16 -1
vn -0 1.22465e-16 1
vn 2.31296e-15 -1 1.22465e-16
vn 1 0 0
vn 1.38778e-14 1 -1.22465e-16
vt -0.36 0.053
vt 0.36 0.053
vt 0.36 -0.217
vt -0.36 -0.217
vt -0.36 -0.009
vt -0.36 0.009
vt 0.36 0.009
vt 0.36 -0.009
vt 0.36 0.053
vt 0.36 -0.285
vt -0.36 -0.285
vt -0.36 0.053
vt -0.36 0.3
vt 0.36 0.3
vt 0.36 0.282
vt -0.36 0.282
vt 0.36 -0.285
vt -0.36 -0.285
vt -0.36 -0.22
vt 0.36 -0.22
vt -0.282 0.338
vt -0.3 0.338
vt -0.288 0.068
vt -0.3 1.2326e-32
vt -0.288 0.065
vt -0.282 1.2326e-32
vt -0.282 0.065
vt -0.282 0.068
vt -0.3 -7.39557e-32
vt -0.3 0.338
vt -0.288 0.068
vt -0.282 0.338
vt -0.282 0.068
vt -0.282 -7.39557e-32
vt -0.288 0.065
vt -0.282 0.065
vt 0.003 -0.36
vt 0.003 0.36
vt -0.003 0.36
vt -0.003 -0.36
vt -0.36 -0.0015
vt 0.36 -0.0015
vt 0.36 0.0015
vt -0.36 0.0015
vt 0.003 -0.36
vt 0.003 0.36
vt -0.003 0.36
vt -0.003 -0.36
f 1/1/1 2/2/1 3/3/1
f 3/3/1 4/4/1 1/1/1
f 1/5/2 5/6/2 6/7/2
f 6/7/2 2/8/2 1/5/2
f 5/9/3 7/10/3 8/11/3
f 8/11/3 6/12/3 5/9/3
f 8/13/4 7/14/4 9/15/4
f 9/15/4 10/16/4 8/13/4
f 10/17/5 9/18/5 11/19/5
f 11/19/5 12/20/5 10/17/5
f 2/21/6 6/22/6 13/23/6
f 8/24/6 14/25/6 13/23/6
f 13/23/6 6/22/6 8/24/6
f 10/26/6 12/27/6 14/25/6
f 14/25/6 8/24/6 10/26/6
f 13/23/6 3/28/6 2/21/6
f 7/29/7 5/30/7 15/31/7
f 1/32/7 4/33/7 15/31/7
f 9/34/7 7/29/7 16/35/7
f 15/31/7 5/30/7 1/32/7
f 15/31/7 16/35/7 7/29/7
f 16/35/7 11/36/7 9/34/7
f 12/37/8 11/38/8 16/39/8
f 16/39/8 14/40/8 12/37/8
f 14/41/9 16/42/9 15/43/9
f 15/43/9 13/44/9 14/41/9
f 13/45/10 15/46/10 4/47/10
f 4/47/10 3/48/10 13/45/10
g RH_Panel_(10)
v 0.043 -0.338 2.157 0.494118 0.494118 0.52549
v 0.043 -0.068 2.157 0.494118 0.494118 0.52549
v 0.043 -0.068 1.438 0.494118 0.494118 0.52549
v 0.043 -0.338 1.438 0.494118 0.494118 0.52549
v 0.061 -0.338 2.157 0.494118 0.494118 0.52549
v 0.061 -0.338 1.438 0.494118 0.494118 0.52549
v 0.061 -7.94449e-17 1.438 0.494118 0.494118 0.52549
v 0.061 8.60718e-18 2.157 0.494118 0.494118 0.52549
v 0.043 -7.94449e-17 1.438 0.494118 0.494118 0.52549
v 0.043 8.60718e-18 2.157 0.494118 0.494118 0.52549
v 0.043 -0.065 2.157 0.494118 0.494118 0.52549
v 0.043 -0.065 1.438 0.494118 0.494118 0.52549
v 0.049 -0.068 1.438 0.494118 0.494118 0.52549
v 0.049 -0.065 1.438 0.494118 0.494118 0.52549
v 0.049 -0.068 2.157 0.494118 0.494118 0.52549
v 0.049 -0.065 2.157 0.494118 0.494118 0.52549
vn -1 -0 -0
vn 0 -1 1.22465e-16
vn 1 -0 -0
vn -0 1 -1.22465e-16
vn -1 -0 -0
vn 0 -1.22465e-16 -1
vn -0 1.22465e-16 1
vn -2.31296e-15 -1 1.22465e-16
vn -1 0 0
vn -1.38778e-14 1 -1.22465e-16
vt -0.359 -0.053
vt -0.359 0.217
vt 0.36 0.217
vt 0.36 -0.053
vt -0.359 -0.009
vt -0.359 0.009
vt 0.36 0.009
vt 0.36 -0.009
vt 0.359 -0.053
vt -0.36 -0.053
vt -0.36 0.285
vt 0.359 0.285
vt -0.36 -0.282
vt 0.359 -0.282
vt 0.359 -0.3
vt -0.36 -0.3
vt -0.359 0.22
vt -0.359 0.285
vt 0.36 0.285
vt 0.36 0.22
vt -0.3 -1.2326e-32
vt -0.3 -0.338
vt -0.288 -0.068
vt -0.282 -0.338
vt -0.282 -0.068
vt -0.282 -1.2326e-32
vt -0.288 -0.065
vt -0.282 -0.065
vt -0.282 -0.338
vt -0.3 -0.338
vt -0.288 -0.068
vt -0.3 8.62817e-32
vt -0.288 -0.065
vt -0.282 8.62817e-32
vt -0.282 -0.065
vt -0.282 -0.068
vt -0.003 0.36
vt -0.003 -0.359
vt 0.003 -0.359
vt 0.003 0.36
vt 0.359 -0.0015
vt 0.359 0.0015
vt -0.36 0.0015
vt -0.36 -0.0015
vt -0.003 0.36
vt -0.003 -0.359
vt 0.003 -0.359
vt 0.003 0.36
f 17/49/11 18/50/11 19/51/11
f 19/51/11 20/52/11 17/49/11
f 21/53/12 17/54/12 20/55/12
f 20/55/12 22/56/12 21/53/12
f 21/57/13 22/58/13 23/59/13
f 23/59/13 24/60/13 21/57/13
f 25/61/14 26/62/14 24/63/14
f 24/63/14 23/64/14 25/61/14
f 27/65/15 26/66/15 25/67/15
f 25/67/15 28/68/15 27/65/15
f 23/69/16 22/70/16 29/71/16
f 20/72/16 19/73/16 29/71/16
f 25/74/16 23/69/16 30/75/16
f 29/71/16 22/70/16 20/72/16
f 29/71/16 30/75/16 23/69/16
f 30/75/16 28/76/16 25/74/16
f 17/77/17 21/78/17 31/79/17
f 24/80/17 32/81/17 31/79/17
f 31/79/17 21/78/17 24/80/17
f 26/82/17 27/83/17 32/81/17
f 32/81/17 24/80/17 26/82/17
f 31/79/17 18/84/17 17/77/17
f 30/85/18 32/86/18 27/87/18
f 27/87/18 28/88/18 30/85/18
f 31/89/19 32/90/19 30/91/19
f 30/91/19 29/92/19 31/89/19
f 19/93/20 18/94/20 31/95/20
f 31/95/20 29/96/20 19/93/20
g MiddleShelf_(13)
v 0.043 -0.338 2.03 0.494118 0.494118 0.52549
v 0.043 -0.068 2.03 0.494118 0.494118 0.52549
v 0.043 -0.068 2.048 0.494118 0.494118 0.52549
v 0.043 -0.338 2.048 0.494118 0.494118 0.52549
v -0.071 -0.068 2.03 0.494118 0.494118 0.52549
v -0.071 -0.068 2.048 0.494118 0.494118 0.52549
v -0.071 -0.338 2.048 0.494118 0.494118 0.52549
v -0.071 -0.338 2.03 0.494118 0.494118 0.52549
vn 1 0 0
vn -0 1 -6.12323e-17
vn 0 -1 6.12323e-17
vn 0 6.12323e-17 1
vn -1 0 0
vn -0 -6.12323e-17 -1
vt -0.232 -0.197
vt -0.502 -0.197
vt -0.502 -0.215
vt -0.232 -0.215
vt -0.183952 0.501112
vt -0.183952 0.483112
vt -0.297952 0.483112
vt -0.297952 0.501112
vt -0.168 0.482
vt -0.168 0.5
vt -0.282 0.5
vt -0.282 0.482
vt 0.232 0.027
vt 0.502 0.027
vt 0.502 0.141
vt 0.232 0.141
vt -0.232 0.215
vt -0.502 0.215
vt -0.502 0.197
vt -0.232 0.197
vt 0.232 0.141
vt 0.502 0.141
vt 0.502 0.027
vt 0.232 0.027
f 33/97/21 34/98/21 35/99/21
f 35/99/21 36/100/21 33/97/21
f 35/101/22 34/102/22 37/103/22
f 37/103/22 38/104/22 35/101/22
f 33/105/23 36/106/23 39/107/23
f 39/107/23 40/108/23 33/105/23
f 36/109/24 35/110/24 38/111/24
f 38/111/24 39/112/24 36/109/24
f 39/113/25 38/114/25 37/115/25
f 37/115/25 40/116/25 39/113/25
f 40/117/26 37/118/26 34/119/26
f 34/119/26 33/120/26 40/117/26
g BackPanel_(10)
v -0.077 -0.065 2.158 0.494118 0.494118 0.52549
v -0.077 -0.068 2.158 0.494118 0.494118 0.52549
v 0.049 -0.068 2.158 0.494118 0.494118 0.52549
v 0.049 -0.065 2.158 0.494118 0.494118 0.52549
v -0.077 -0.065 1.438 0.494118 0.494118 0.52549
v -0.077 -0.068 1.438 0.494118 0.494118 0.52549
v 0.049 -0.065 1.438 0.494118 0.494118 0.52549
v 0.049 -0.068 1.438 0.494118 0.494118 0.52549
vn -0 1.22465e-16 1
vn -1 0 0
vn 0 -1.22465e-16 -1
vn 2.4606e-16 1 -1.22465e-16
vn 9.8424e-17 -1 1.22465e-16
vn 1 0 0
vt -0.298543 0.0477446
vt -0.298543 0.0507446
vt -0.172543 0.0507446
vt -0.172543 0.0477446
vt -0.36714 -0.21839
vt -0.36714 -0.22139
vt 0.35286 -0.22139
vt 0.35286 -0.21839
vt -0.288 0.068
vt -0.288 0.065
vt -0.162 0.065
vt -0.162 0.068
vt 0.147 -0.36
vt 0.147 0.36
vt 0.021 0.36
vt 0.021 -0.36
vt -0.021 -0.36
vt -0.021 0.36
vt -0.147 0.36
vt -0.147 -0.36
vt -0.360304 0.216648
vt 0.359696 0.216648
vt 0.359696 0.219648
vt -0.360304 0.219648
f 41/121/27 42/122/27 43/123/27
f 43/123/27 44/124/27 41/121/27
f 42/125/28 41/126/28 45/127/28
f 45/127/28 46/128/28 42/125/28
f 46/129/29 45/130/29 47/131/29
f 47/131/29 48/132/29 46/129/29
f 45/133/30 41/134/30 44/135/30
f 44/135/30 47/136/30 45/133/30
f 48/137/31 43/138/31 42/139/31
f 42/139/31 46/140/31 48/137/31
f 43/141/32 48/142/32 47/143/32
f 47/143/32 44/144/32 43/141/32
g MiddleShelf_(10)
v 0.043 -0.338 2.14 0.494118 0.494118 0.52549
v 0.043 -0.068 2.14 0.494118 0.494118 0.52549
v 0.043 -0.068 2.158 0.494118 0.494118 0.52549
v 0.043 -0.338 2.158 0.494118 0.494118 0.52549
v -0.071 -0.068 2.14 0.494118 0.494118 0.52549
v -0.071 -0.068 2.158 0.494118 0.494118 0.52549
v -0.071 -0.338 2.158 0.494118 0.494118 0.52549
v -0.071 -0.338 2.14 0.494118 0.494118 0.52549
vn 1 0 0
vn -0 1 -6.12323e-17
vn 0 -1 6.12323e-17
vn 0 6.12323e-17 1
vn -1 0 0
vn -0 -6.12323e-17 -1
vt -0.232 -0.197
vt -0.502 -0.197
vt -0.502 -0.215
vt -0.232 -0.215
vt -0.183952 0.501112
vt -0.183952 0.483112
vt -0.297952 0.483112
vt -0.297952 0.501112
vt -0.168 0.482
vt -0.168 0.5
vt -0.282 0.5
vt -0.282 0.482
vt 0.232 0.027
vt 0.502 0.027
vt 0.502 0.141
vt 0.232 0.141
vt -0.232 0.215
vt -0.502 0.215
vt -0.502 0.197
vt -0.232 0.197
vt 0.232 0.141
vt 0.502 0.141
vt 0.502 0.027
vt 0.232 0.027
f 49/145/33 50/146/33 51/147/33
f 51/147/33 52/148/33 49/145/33
f 51/149/34 50/150/34 53/151/34
f 53/151/34 54/152/34 51/149/34
f 49/153/35 52/154/35 55/155/35
f 55/155/35 56/156/35 49/153/35
f 52/157/36 51/158/36 54/159/36
f 54/159/36 55/160/36 52/157/36
f 55/161/37 54/162/37 53/163/37
f 53/163/37 56/164/37 55/161/37
f 56/165/38 53/166/38 50/167/38
f 50/167/38 49/168/38 56/165/38
g MiddleShelf_(11)
v 0.043 -0.338 1.8 0.494118 0.494118 0.52549
v 0.043 -0.068 1.8 0.494118 0.494118 0.52549
v 0.043 -0.068 1.818 0.494118 0.494118 0.52549
v 0.043 -0.338 1.818 0.494118 0.494118 0.52549
v -0.071 -0.068 1.8 0.494118 0.494118 0.52549
v -0.071 -0.068 1.818 0.494118 0.494118 0.52549
v -0.071 -0.338 1.818 0.494118 0.494118 0.52549
v -0.071 -0.338 1.8 0.494118 0.494118 0.52549
vn 1 0 0
vn -0 1 -6.12323e-17
vn 0 -1 6.12323e-17
vn 0 6.12323e-17 1
vn -1 0 0
vn -0 -6.12323e-17 -1
vt -0.232 -0.197
vt -0.502 -0.197
vt -0.502 -0.215
vt -0.232 -0.215
vt -0.183952 0.501112
vt -0.183952 0.483112
vt -0.297952 0.483112
vt -0.297952 0.501112
vt -0.168 0.482
vt -0.168 0.5
vt -0.282 0.5
vt -0.282 0.482
vt 0.232 0.027
vt 0.502 0.027
vt 0.502 0.141
vt 0.232 0.141
vt -0.232 0.215
vt -0.502 0.215
vt -0.502 0.197
vt -0.232 0.197
vt 0.232 0.141
vt 0.502 0.141
vt 0.502 0.027
vt 0.232 0.027
f 57/169/39 58/170/39 59/171/39
f 59/171/39 60/172/39 57/169/39
f 59/173/40 58/174/40 61/175/40
f 61/175/40 62/176/40 59/173/40
f 57/177/41 60/178/41 63/179/41
f 63/179/41 64/180/41 57/177/41
f 60/181/42 59/182/42 62/183/42
f 62/183/42 63/184/42 60/181/42
f 63/185/43 62/186/43 61/187/43
f 61/187/43 64/188/43 63/185/43
f 64/189/44 61/190/44 58/191/44
f 58/191/44 57/192/44 64/189/44
g MiddleShelf_(14)
v 0.043 -0.338 1.68 0.494118 0.494118 0.52549
v 0.043 -0.068 1.68 0.494118 0.494118 0.52549
v 0.043 -0.068 1.698 0.494118 0.494118 0.52549
v 0.043 -0.338 1.698 0.494118 0.494118 0.52549
v -0.071 -0.068 1.68 0.494118 0.494118 0.52549
v -0.071 -0.068 1.698 0.494118 0.494118 0.52549
v -0.071 -0.338 1.698 0.494118 0.494118 0.52549
v -0.071 -0.338 1.68 0.494118 0.494118 0.52549
vn 1 0 0
vn -0 1 -6.12323e-17
vn 0 -1 6.12323e-17
vn 0 6.12323e-17 1
vn -1 0 0
vn -0 -6.12323e-17 -1
vt -0.232 -0.197
vt -0.502 -0.197
vt -0.502 -0.215
vt -0.232 -0.215
vt -0.183952 0.501112
vt -0.183952 0.483112
vt -0.297952 0.483112
vt -0.297952 0.501112
vt -0.168 0.482
vt -0.168 0.5
vt -0.282 0.5
vt -0.282 0.482
vt 0.232 0.027
vt 0.502 0.027
vt 0.502 0.141
vt 0.232 0.141
vt -0.232 0.215
vt -0.502 0.215
vt -0.502 0.197
vt -0.232 0.197
vt 0.232 0.141
vt 0.502 0.141
vt 0.502 0.027
vt 0.232 0.027
f 65/193/45 66/194/45 67/195/45
f 67/195/45 68/196/45 65/193/45
f 67/197/46 66/198/46 69/199/46
f 69/199/46 70/200/46 67/197/46
f 65/201/47 68/202/47 71/203/47
f 71/203/47 72/204/47 65/201/47
f 68/205/48 67/206/48 70/207/48
f 70/207/48 71/208/48 68/205/48
f 71/209/49 70/210/49 69/211/49
f 69/211/49 72/212/49 71/209/49
f 72/213/50 69/214/50 66/215/50
f 66/215/50 65/216/50 72/213/50
g MiddleShelf_(12)
v 0.043 -0.338 1.92 0.494118 0.494118 0.52549
v 0.043 -0.068 1.92 0.494118 0.494118 0.52549
v 0.043 -0.068 1.938 0.494118 0.494118 0.52549
v 0.043 -0.338 1.938 0.494118 0.494118 0.52549
v -0.071 -0.068 1.92 0.494118 0.494118 0.52549
v -0.071 -0.068 1.938 0.494118 0.494118 0.52549
v -0.071 -0.338 1.938 0.494118 0.494118 0.52549
v -0.071 -0.338 1.92 0.494118 0.494118 0.52549
vn 1 0 0
vn -0 1 -6.12323e-17
vn 0 -1 6.12323e-17
vn 0 6.12323e-17 1
vn -1 0 0
vn -0 -6.12323e-17 -1
vt -0.232 -0.197
vt -0.502 -0.197
vt -0.502 -0.215
vt -0.232 -0.215
vt -0.183952 0.501112
vt -0.183952 0.483112
vt -0.297952 0.483112
vt -0.297952 0.501112
vt -0.168 0.482
vt -0.168 0.5
vt -0.282 0.5
vt -0.282 0.482
vt 0.232 0.027
vt 0.502 0.027
vt 0.502 0.141
vt 0.232 0.141
vt -0.232 0.215
vt -0.502 0.215
vt -0.502 0.197
vt -0.232 0.197
vt 0.232 0.141
vt 0.502 0.141
vt 0.502 0.027
vt 0.232 0.027
f 73/217/51 74/218/51 75/219/51
f 75/219/51 76/220/51 73/217/51
f 75/221/52 74/222/52 77/223/52
f 77/223/52 78/224/52 75/221/52
f 73/225/53 76/226/53 79/227/53
f 79/227/53 80/228/53 73/225/53
f 76/229/54 75/230/54 78/231/54
f 78/231/54 79/232/54 76/229/54
f 79/233/55 78/234/55 77/235/55
f 77/235/55 80/236/55 79/233/55
f 80/237/56 77/238/56 74/239/56
f 74/239/56 73/240/56 80/237/56
g MiddleShelf_(15)
v 0.043 -0.338 1.56 0.494118 0.494118 0.52549
v 0.043 -0.068 1.56 0.494118 0.494118 0.52549
v 0.043 -0.068 1.578 0.494118 0.494118 0.52549
v 0.043 -0.338 1.578 0.494118 0.494118 0.52549
v -0.071 -0.068 1.56 0.494118 0.494118 0.52549
v -0.071 -0.068 1.578 0.494118 0.494118 0.52549
v -0.071 -0.338 1.578 0.494118 0.494118 0.52549
v -0.071 -0.338 1.56 0.494118 0.494118 0.52549
vn 1 0 0
vn -0 1 -6.12323e-17
vn 0 -1 6.12323e-17
vn 0 6.12323e-17 1
vn -1 0 0
vn -0 -6.12323e-17 -1
vt -0.232 -0.197
vt -0.502 -0.197
vt -0.502 -0.215
vt -0.232 -0.215
vt -0.183952 0.501112
vt -0.183952 0.483112
vt -0.297952 0.483112
vt -0.297952 0.501112
vt -0.168 0.482
vt -0.168 0.5
vt -0.282 0.5
vt -0.282 0.482
vt 0.232 0.027
vt 0.502 0.027
vt 0.502 0.141
vt 0.232 0.141
vt -0.232 0.215
vt -0.502 0.215
vt -0.502 0.197
vt -0.232 0.197
vt 0.232 0.141
vt 0.502 0.141
vt 0.502 0.027
vt 0.232 0.027
f 81/241/57 82/242/57 83/243/57
f 83/243/57 84/244/57 81/241/57
f 83/245/58 82/246/58 85/247/58
f 85/247/58 86/248/58 83/245/58
f 81/249/59 84/250/59 87/251/59
f 87/251/59 88/252/59 81/249/59
f 84/253/60 83/254/60 86/255/60
f 86/255/60 87/256/60 84/253/60
f 87/257/61 86/258/61 85/259/61
f 85/259/61 88/260/61 87/257/61
f 88/261/62 85/262/62 82/263/62
f 82/263/62 81/264/62 88/261/62
g MiddleShelf_(12)_(2)
v 0.043 -0.338 1.438 0.494118 0.494118 0.52549
v 0.043 -0.068 1.438 0.494118 0.494118 0.52549
v 0.043 -0.068 1.456 0.494118 0.494118 0.52549
v 0.043 -0.338 1.456 0.494118 0.494118 0.52549
v -0.071 -0.068 1.438 0.494118 0.494118 0.52549
v -0.071 -0.068 1.456 0.494118 0.494118 0.52549
v -0.071 -0.338 1.456 0.494118 0.494118 0.52549
v -0.071 -0.338 1.438 0.494118 0.494118 0.52549
vn 1 0 0
vn -0 1 -6.12323e-17
vn 0 -1 6.12323e-17
vn 0 6.12323e-17 1
vn -1 0 0
vn -0 -6.12323e-17 -1
vt -0.232 -0.195
vt -0.502 -0.195
vt -0.502 -0.213
vt -0.232 -0.213
vt -0.183952 0.499112
vt -0.183952 0.481112
vt -0.297952 0.481112
vt -0.297952 0.499112
vt -0.168 0.48
vt -0.168 0.498
vt -0.282 0.498
vt -0.282 0.48
vt 0.232 0.027
vt 0.502 0.027
vt 0.502 0.141
vt 0.232 0.141
vt -0.232 0.213
vt -0.502 0.213
vt -0.502 0.195
vt -0.232 0.195
vt 0.232 0.141
vt 0.502 0.141
vt 0.502 0.027
vt 0.232 0.027
f 89/265/63 90/266/63 91/267/63
f 91/267/63 92/268/63 89/265/63
f 91/269/64 90/270/64 93/271/64
f 93/271/64 94/272/64 91/269/64
f 89/273/65 92/274/65 95/275/65
f 95/275/65 96/276/65 89/273/65
f 92/277/66 91/278/66 94/279/66
f 94/279/66 95/280/66 92/277/66
f 95/281/67 94/282/67 93/283/67
f 93/283/67 96/284/67 95/281/67
f 96/285/68 93/286/68 90/287/68
f 90/287/68 89/288/68 96/285/68
