g Wall_End_Panel
v 3.071 -7.94449e-17 1.438 0.494118 0.494118 0.52549
v 3.071 -0.338 1.438 0.494118 0.494118 0.52549
v 3.053 -0.338 1.438 0.494118 0.494118 0.52549
v 3.053 -7.94449e-17 1.438 0.494118 0.494118 0.52549
v 3.053 -0.338 2.157 0.494118 0.494118 0.52549
v 3.053 8.60718e-18 2.157 0.494118 0.494118 0.52549
v 3.071 -0.338 2.157 0.494118 0.494118 0.52549
v 3.071 8.60718e-18 2.157 0.494118 0.494118 0.52549
vn 0 -1.22465e-16 -1
vn -1 -0 -0
vn 0 -1 1.22465e-16
vn 1 -0 -0
vn -0 1 -1.22465e-16
vn -0 1.22465e-16 1
vt -0.3 -1.2326e-32
vt -0.3 -0.338
vt -0.282 -0.338
vt -0.282 -1.2326e-32
vt -0.359 -0.053
vt -0.359 0.285
vt 0.36 0.285
vt 0.36 -0.053
vt -0.359 -0.009
vt -0.359 0.009
vt 0.36 0.009
vt 0.36 -0.009
vt 0.359 -0.053
vt -0.36 -0.053
vt -0.36 0.285
vt 0.359 0.285
vt -0.36 -0.282
vt 0.359 -0.282
vt 0.359 -0.3
vt -0.36 -0.3
vt -0.282 -0.338
vt -0.3 -0.338
vt -0.3 8.62817e-32
vt -0.282 8.62817e-32
f 1/1/1 2/2/1 3/3/1
f 3/3/1 4/4/1 1/1/1
f 5/5/2 6/6/2 4/7/2
f 4/7/2 3/8/2 5/5/2
f 7/9/3 5/10/3 3/11/3
f 3/11/3 2/12/3 7/9/3
f 7/13/4 2/14/4 1/15/4
f 1/15/4 8/16/4 7/13/4
f 4/17/5 6/18/5 8/19/5
f 8/19/5 1/20/5 4/17/5
f 5/21/6 7/22/6 8/23/6
f 8/23/6 6/24/6 5/21/6
